<?xml version="1.0" encoding="utf-8"?>
<!-- Generator: Adobe Illustrator 27.2.0, SVG Export Plug-In . SVG Version: 6.00 Build 0)  -->
<svg version="1.1" id="Layer_1" xmlns="http://www.w3.org/2000/svg" xmlns:xlink="http://www.w3.org/1999/xlink" x="0px" y="0px"
	 viewBox="0 0 100 100" style="enable-background:new 0 0 100 100;" xml:space="preserve">
<style type="text/css">
	.st0{fill:#2150FD;}
</style>
<g>
	<path class="st0" d="M50,5C25.1,5,5,25.1,5,50c0,24.9,20.1,45,45,45c24.9,0,45-20.1,45-45C95,25.1,74.9,5,50,5z M76.1,40.9
		L48.6,68.3c-1.2,1.2-2.9,1.9-4.6,1.9s-3.4-0.7-4.6-1.9L23.9,52.8c-2.5-2.5-2.5-6.7,0-9.2c2.5-2.5,6.7-2.5,9.2,0L44,54.5l22.9-22.9
		c2.5-2.5,6.7-2.5,9.2,0C78.6,34.2,78.6,38.3,76.1,40.9z"/>
</g>
</svg>
