<?xml version="1.0" encoding="utf-8"?>
<!-- Generator: Adobe Illustrator 27.2.0, SVG Export Plug-In . SVG Version: 6.00 Build 0)  -->
<svg version="1.1" id="Layer_1" xmlns="http://www.w3.org/2000/svg" xmlns:xlink="http://www.w3.org/1999/xlink" x="0px" y="0px"
	 viewBox="0 0 100 100" style="enable-background:new 0 0 100 100;" xml:space="preserve">
<style type="text/css">
	.st0{fill:#2150FD;}
</style>
<g>
	<path class="st0" d="M58.4,42c1-0.9,1.4-2.1,1.4-3.6c0-1.5-0.5-2.7-1.4-3.6c-1-0.9-2.2-1.4-3.8-1.4H43.3v10h11.4
		C56.2,43.4,57.5,42.9,58.4,42z"/>
	<path class="st0" d="M55.1,52.4H43.3v13h11.8c2.1,0,3.7-0.6,5-1.8c1.2-1.2,1.9-2.7,1.9-4.7c0-1.9-0.6-3.5-1.9-4.7
		S57.2,52.4,55.1,52.4z"/>
	<path class="st0" d="M50,5C25.1,5,5,25.1,5,50c0,24.9,20.1,45,45,45c24.9,0,45-20.1,45-45C95,25.1,74.9,5,50,5z M67.4,70.2
		c-3.2,2.7-7.7,4.1-13.5,4.1H33V24.8h20.9c3.4,0,6.3,0.6,8.8,1.7c2.4,1.2,4.3,2.8,5.6,5c1.3,2.1,1.9,4.8,1.9,7.8
		c0,2.2-0.6,4.2-1.8,6.2c-0.5,0.7-1,1.4-1.7,2.1c0.7,0.5,1.3,0.9,1.8,1.5c1.4,1.4,2.4,3,2.9,4.6s0.8,3.4,0.8,5.2
		C72.2,63.7,70.6,67.5,67.4,70.2z"/>
</g>
</svg>
